<?xml version="1.0" encoding="UTF-8"?>
<svg width="26px" height="26px" viewBox="0 0 26 26" version="1.1" xmlns="http://www.w3.org/2000/svg" xmlns:xlink="http://www.w3.org/1999/xlink">
    <title>编组 6</title>
    <g id="2.4" stroke="none" stroke-width="1" fill="none" fill-rule="evenodd">
        <g id="pc-2.4-悬浮工具弹窗" transform="translate(-1261.000000, -983.000000)" fill="#ffffff" fill-rule="nonzero">
            <g id="编组-20" transform="translate(1176.000000, 970.000000)">
                <g id="编组-8" transform="translate(85.000000, 13.000000)">
                    <g id="分享" transform="translate(2.000000, 2.000000)">
                        <path d="M20.519625,12.1622812 C20.953625,12.1622812 21.305625,12.5142812 21.305625,12.9482812 L21.305625,17.0472812 C21.302319,19.3957201 19.3990646,21.2985272 17.050625,21.3012812 L4.27062501,21.3012812 C1.92257513,21.2985285 0.019481688,19.3963296 0.0156249902,17.0482813 L0.0156249902,4.26728124 C0.0183802236,1.91845183 1.92179559,0.0150364672 4.27062501,0.01228125 L8.30862501,0.01228125 C8.73154248,0.0273733444 9.06659391,0.37459458 9.06659391,0.797781255 C9.06659391,1.22096793 8.73154248,1.56818917 8.30862501,1.58328126 L4.27062501,1.58328126 C2.78874941,1.58383203 1.58728002,2.78440647 1.58562501,4.26628125 L1.58562501,17.0462812 C1.586728,18.5281564 2.78774984,19.7291783 4.26962499,19.7302813 L17.049625,19.7302813 C18.5307196,19.728628 19.7309717,18.5283759 19.732625,17.0472812 L19.732625,12.9482812 C19.732625,12.5142812 20.084625,12.1622812 20.518625,12.1622812 L20.519625,12.1622812 Z M14.468625,1.92028125 C14.0457075,1.90518916 13.7106561,1.55796792 13.7106561,1.13478125 C13.7106561,0.71159457 14.0457075,0.364373335 14.468625,0.34928124 L19.571625,0.34928124 C20.005625,0.34928124 20.357625,0.70128123 20.357625,1.13528124 L20.357625,5.80328124 C20.3425329,6.22619871 19.9953117,6.56125014 19.572125,6.56125014 C19.1489383,6.56125014 18.8017171,6.22619871 18.786625,5.80328124 L18.786625,2.71328124 L9.005625,13.6812812 C8.86755619,13.837663 8.67272746,13.9323965 8.46446366,13.9444153 C8.25619987,13.9564341 8.05176677,13.884742 7.89662499,13.7452813 C7.74080165,13.6066065 7.6465791,13.4116153 7.63475899,13.2033561 C7.62293887,12.9950969 7.69449326,12.7906967 7.83362499,12.6352813 L17.388625,1.92028125 L14.468625,1.92028125 Z" id="形状"></path>
                    </g>
                </g>
            </g>
        </g>
    </g>
</svg>
