<?xml version="1.0" encoding="UTF-8"?>
<svg width="26px" height="26px" viewBox="0 0 26 26" version="1.1" xmlns="http://www.w3.org/2000/svg" xmlns:xlink="http://www.w3.org/1999/xlink">
    <title>编组 10</title>
    <g id="2.4" stroke="none" stroke-width="1" fill="none" fill-rule="evenodd">
        <g id="pc-2.4-悬浮工具弹窗" transform="translate(-1219.000000, -983.000000)" fill-rule="nonzero" stroke="#FFFFFF">
            <g id="编组-20" transform="translate(1192.000000, 970.000000)">
                <g id="编组-10" transform="translate(25.000000, 12.000000)">
                    <path d="M19.7652994,24.3333377 L10.1452994,24.3333377 C9.66824305,24.3340394 9.22716073,24.0798133 8.98863279,23.6666696 L4.17863279,15.3333362 C3.94045574,14.9208015 3.94045574,14.4125377 4.17863279,14.0000014 L8.98863279,5.66666956 C9.22716073,5.25352586 9.66824305,4.99929974 10.1452994,5.00000145 L19.7652994,5.00000145 C20.2423558,4.99929974 20.6834382,5.25352586 20.9219661,5.66666956 L25.7319661,14.0000014 C25.9701431,14.4125377 25.9701431,14.9208015 25.7319661,15.3333362 L20.9219661,23.6666696 C20.6834382,24.0798133 20.2423558,24.3340394 19.7652994,24.3333377 Z M10.1452994,5.66666428 C9.90617627,5.66572022 9.68486008,5.79291344 9.56529944,6.0000029 L4.75529944,14.3333362 C4.6362109,14.5396036 4.6362109,14.7937355 4.75529944,15.0000029 L9.56529944,23.3333362 C9.68486008,23.5404257 9.90617627,23.6676189 10.1452994,23.6666748 L19.7652994,23.6666748 C20.0044226,23.6676189 20.2257388,23.5404257 20.3452994,23.3333362 L25.1552994,15.0000029 C25.274388,14.7937355 25.274388,14.5396036 25.1552994,14.3333362 L20.3452994,6.0000029 C20.2257388,5.79291344 20.0044226,5.66572022 19.7652994,5.66666428 L10.1452994,5.66666428 Z" id="形状" stroke-width="0.8" transform="translate(14.955299, 14.666670) rotate(-330.000000) translate(-14.955299, -14.666670) "></path>
                    <circle id="椭圆形" stroke-width="1.5" cx="15" cy="15" r="4"></circle>
                </g>
            </g>
        </g>
    </g>
</svg>