<?xml version="1.0" encoding="UTF-8"?>
<svg width="17px" height="17px" viewBox="0 0 17 17" version="1.1" xmlns="http://www.w3.org/2000/svg" xmlns:xlink="http://www.w3.org/1999/xlink">
    <title>下拉备份</title>
    <g id="2.4" stroke="none" stroke-width="1" fill="none" fill-rule="evenodd">
        <g id="2.4展示端-工具弹窗" transform="translate(-343.000000, -569.000000)" fill="#FFFFFF" fill-rule="nonzero" stroke="#FFFFFF" stroke-width="0.4">
            <g id="编组-14" transform="translate(0.000000, 557.000000)">
                <g id="下拉备份-2" transform="translate(343.000000, 12.000000)">
                    <g id="下拉备份" transform="translate(8.500000, 8.750000) scale(1, -1) rotate(-360.000000) translate(-8.500000, -8.750000) translate(1.000000, 5.000000)">
                        <path d="M0,7.17478694 C0,7.266027 0.0457986128,7.35670662 0.135240366,7.42093335 C0.298498499,7.53829004 0.545136807,7.52327019 0.686169195,7.38741888 L7.50004084,0.82228147 L14.3137778,7.38741888 C14.4548102,7.52327019 14.7014485,7.53829004 14.8647066,7.42093335 C15.0279647,7.30357666 15.0460147,7.09834255 14.9049823,6.96249126 L7.79571047,0.112536882 C7.72148998,0.041024401 7.61359414,0 7.50004084,0 C7.38648754,0 7.27859169,0.0411364952 7.2043712,0.112536882 L0.0949646384,6.96249126 C0.0336421695,7.02144241 0,7.0968184 0,7.17478694 Z" id="路径"></path>
                    </g>
                </g>
            </g>
        </g>
    </g>
</svg>