<?xml version="1.0" encoding="UTF-8"?>
<svg width="18px" height="18px" viewBox="0 0 18 18" version="1.1" xmlns="http://www.w3.org/2000/svg" xmlns:xlink="http://www.w3.org/1999/xlink">
    <title>路径</title>
    <g id="1.3" stroke="none" stroke-width="1" fill="none" fill-rule="evenodd">
        <g id="编辑模式登录" transform="translate(-1092.000000, -267.000000)" fill="#999999" fill-rule="nonzero">
            <g id="编组-18" transform="translate(779.625000, 245.000000)">
                <g id="编组-17" transform="translate(312.375000, 22.000000)">
                    <path d="M16.3180164,17.711427 L9.00021027,10.3935824 L1.68240411,17.711427 C1.43337588,17.9603685 1.07045628,18.0575443 0.73035362,17.9663492 C0.39025096,17.875154 0.124634921,17.6094426 0.0335604947,17.269306 C-0.0575139315,16.9291693 0.0397896266,16.5662822 0.28881786,16.3173407 L7.60662402,8.99998877 L0.28881786,1.6826369 C-0.0961464342,1.29780666 -0.0962567471,0.673763243 0.288571469,0.288796922 C0.673399686,-0.096169398 1.29743982,-0.0962797116 1.68240411,0.28855053 L9.00021027,7.60639519 L16.3180164,0.28855053 C16.5670447,0.0396970234 16.9299173,-0.0573974165 17.2699437,0.0338417482 C17.6099702,0.125080913 17.8754923,0.390792282 17.9664905,0.730884949 C18.0574887,1.07097762 17.9601381,1.43378341 17.7111099,1.6826369 L10.3942893,8.99998877 L17.7111099,16.3173407 C17.9601381,16.5661941 18.0574887,16.9289999 17.9664905,17.2690926 C17.8754923,17.6091853 17.6099702,17.8748967 17.2699437,17.9661358 C16.9299173,18.057375 16.5670447,17.9602805 16.3180164,17.711427 Z" id="路径"></path>
                </g>
            </g>
        </g>
    </g>
</svg>